<svg width="118" height="118" viewBox="0 0 118 118" fill="none" xmlns="http://www.w3.org/2000/svg">
<path d="M89.4396 15.1319L92.9004 22.111C93.3724 23.0825 94.6306 24.0144 95.6926 24.1928L101.966 25.2437C105.977 25.9178 106.921 28.8522 104.03 31.7469L99.1534 36.664C98.3279 37.4968 97.8756 39.1028 98.1313 40.2527L99.5271 46.3396C100.628 51.1574 98.0919 53.0213 93.8641 50.503L87.9842 46.9939C86.9222 46.3594 85.1724 46.3594 84.0907 46.9939L78.2109 50.503C74.0027 53.0213 71.4465 51.1378 72.5474 46.3396L73.9437 40.2527C74.1994 39.1028 73.7471 37.4968 72.9211 36.664L68.0442 31.7469C65.1734 28.8522 66.0977 25.9178 70.1092 25.2437L76.3819 24.1928C77.4242 24.0144 78.6829 23.0825 79.1549 22.111L82.6157 15.1319C84.5037 11.3449 87.5712 11.3449 89.4396 15.1319Z" stroke="#163300" stroke-width="8.5" stroke-linecap="round" stroke-linejoin="round"/>
<path d="M12.2917 58.0408C12.2917 84.367 33.6333 105.708 59.9593 105.708C81.6217 105.708 99.9087 91.2587 105.708 71.4721C98.7223 76.5481 90.1255 79.5413 80.8301 79.5413C57.4287 79.5413 38.4586 60.5714 38.4586 37.1702C38.4586 27.8744 41.4522 19.2778 46.5278 12.2917C26.7413 18.0913 12.2917 36.3786 12.2917 58.0408Z" stroke="#163300" stroke-width="8.5" stroke-linejoin="round"/>
</svg>
