<svg xmlns="http://www.w3.org/2000/svg" xmlns:xlink="http://www.w3.org/1999/xlink" version="1.1" x="0px" y="0px" viewBox="0 0 100.016 296.47875" style="enable-background:new 0 0 100.016 237.183;" xml:space="preserve"><g><path d="M8.576,146.427c0.157,0,0.315-0.005,0.473-0.014c4.412-0.261,7.777-4.044,7.519-8.456   c-0.393-6.651-0.57-12.709-0.568-18.221c-0.033-24.215,3.496-37.82,6.964-44.92v150.003c0,6.83,5.537,12.363,12.363,12.363   c6.828,0,12.365-5.533,12.365-12.363v-90.271h4.635v90.271c0,6.83,5.537,12.363,12.363,12.363c6.828,0,12.365-5.533,12.365-12.363   V74.861c0.593,1.216,1.19,2.611,1.78,4.238c2.818,7.812,5.191,20.629,5.182,40.639c0,5.512-0.178,11.571-0.566,18.222   c-0.258,4.41,3.109,8.195,7.521,8.452c0.158,0.009,0.315,0.014,0.472,0.014c4.205,0,7.733-3.281,7.98-7.535   c0.403-6.932,0.591-13.298,0.591-19.153c-0.039-30.184-4.861-46.888-11.434-56.933c-3.285-4.985-7.127-8.184-10.679-9.954   c-3.419-1.724-6.424-2.113-8.226-2.135c-0.117-0.005-0.232-0.017-0.351-0.017H30.692c-0.127,0-0.251,0.013-0.376,0.019   c-1.805,0.023-4.798,0.415-8.204,2.133c-5.379,2.667-11.178,8.502-15.235,18.84C2.77,82.07,0.014,97.076,0,119.736   c0,5.855,0.188,12.224,0.595,19.157C0.844,143.145,4.371,146.426,8.576,146.427z"/><circle cx="50.008" cy="22.5" r="22.5"/></g><text x="0" y="252.183" fill="#000000" font-size="5px" font-weight="bold" font-family="'Helvetica Neue', Helvetica, Arial-Unicode, Arial, Sans-serif">Created by Gan Khoon Lay</text><text x="0" y="257.183" fill="#000000" font-size="5px" font-weight="bold" font-family="'Helvetica Neue', Helvetica, Arial-Unicode, Arial, Sans-serif">from the Noun Project</text></svg>